<svg xmlns="http://www.w3.org/2000/svg" viewBox="0 0 200 200" role="img" aria-label="Worker Empowerment">
  <defs>
    <linearGradient id="empowerGrad" x1="0%" y1="0%" x2="100%" y2="100%">
      <stop offset="0%" style="stop-color:#CD853F;stop-opacity:1" />
      <stop offset="100%" style="stop-color:#8B6F47;stop-opacity:1" />
    </linearGradient>
  </defs>
  
  <!-- Strong fist raised in solidarity -->
  <circle cx="100" cy="100" r="90" fill="#F5F5DC" opacity="0.2"/>
  <path d="M 70 120 L 70 90 L 75 85 L 80 90 L 80 110 
           M 80 110 L 85 85 L 90 80 L 95 85 L 95 110
           M 95 110 L 100 80 L 105 75 L 110 80 L 110 110
           M 110 110 L 115 85 L 120 80 L 125 85 L 125 115
           L 125 130 Q 125 145 110 145 L 75 145 Q 70 145 70 135 Z" 
        fill="url(#empowerGrad)" stroke="#5D4E37" stroke-width="3"/>
  
  <!-- Power rays -->
  <path d="M 100 60 L 95 45 L 100 50 L 105 45 Z" fill="#FFD700" opacity="0.8"/>
  <path d="M 130 80 L 145 75 L 138 80 L 145 85 Z" fill="#FFD700" opacity="0.8"/>
  <path d="M 70 80 L 55 75 L 62 80 L 55 85 Z" fill="#FFD700" opacity="0.8"/>
</svg>
