<svg xmlns="http://www.w3.org/2000/svg" viewBox="0 0 200 200" role="img" aria-label="Innovation for Good">
  <defs>
    <linearGradient id="innovationGrad" x1="0%" y1="0%" x2="100%" y2="100%">
      <stop offset="0%" style="stop-color:#FFD700;stop-opacity:1" />
      <stop offset="100%" style="stop-color:#FFA500;stop-opacity:1" />
    </linearGradient>
  </defs>
  
  <!-- Lightbulb with heart inside -->
  <circle cx="100" cy="100" r="90" fill="#F5F5DC" opacity="0.2"/>
  
  <!-- Lightbulb -->
  <circle cx="100" cy="85" r="35" fill="url(#innovationGrad)" opacity="0.4" stroke="#DAA520" stroke-width="3"/>
  
  <!-- Filament/Heart inside -->
  <path d="M 100 75 Q 90 65 85 70 Q 80 75 85 85 L 100 100 L 115 85 Q 120 75 115 70 Q 110 65 100 75 Z" 
        fill="#FF6347" stroke="#C44536" stroke-width="2"/>
  
  <!-- Bulb base -->
  <rect x="90" y="115" width="20" height="15" fill="#8B7355" stroke="#5D4E37" stroke-width="2"/>
  <rect x="85" y="130" width="30" height="8" rx="2" fill="#A0826D" stroke="#5D4E37" stroke-width="2"/>
  
  <!-- Light rays -->
  <path d="M 100 40 L 95 25 L 100 28 L 105 25 Z" fill="#FFD700"/>
  <path d="M 135 55 L 148 48 L 142 53 L 150 58 Z" fill="#FFD700"/>
  <path d="M 150 90 L 168 90 L 162 93 L 168 96 Z" fill="#FFD700"/>
  <path d="M 135 125 L 148 132 L 142 127 L 150 122 Z" fill="#FFD700"/>
  <path d="M 65 55 L 52 48 L 58 53 L 50 58 Z" fill="#FFD700"/>
  <path d="M 50 90 L 32 90 L 38 93 L 32 96 Z" fill="#FFD700"/>
  <path d="M 65 125 L 52 132 L 58 127 L 50 122 Z" fill="#FFD700"/>
  
  <!-- Gears (technology) -->
  <g transform="translate(70, 150) scale(0.6)">
    <circle cx="0" cy="0" r="12" fill="none" stroke="#4A90E2" stroke-width="3"/>
    <circle cx="0" cy="0" r="5" fill="#4A90E2"/>
  </g>
  
  <g transform="translate(130, 150) scale(0.6)">
    <circle cx="0" cy="0" r="12" fill="none" stroke="#4A90E2" stroke-width="3"/>
    <circle cx="0" cy="0" r="5" fill="#4A90E2"/>
  </g>
</svg>
